<mxfile host="app.diagrams.net" modified="2022-02-20T20:55:52.622Z" agent="5.0 (Windows NT 10.0; Win64; x64) AppleWebKit/537.36 (KHTML, like Gecko) Chrome/97.0.4692.99 Safari/537.36 OPR/83.0.4254.46" etag="lCJyJAY5LYApNv6Xv5cZ" version="16.6.1" type="github">
  <diagram id="C5RBs43oDa-KdzZeNtuy" name="Page-1">
    <mxGraphModel dx="1886" dy="614" grid="1" gridSize="10" guides="1" tooltips="1" connect="1" arrows="1" fold="1" page="1" pageScale="1" pageWidth="827" pageHeight="1169" math="0" shadow="0">
      <root>
        <mxCell id="WIyWlLk6GJQsqaUBKTNV-0" />
        <mxCell id="WIyWlLk6GJQsqaUBKTNV-1" parent="WIyWlLk6GJQsqaUBKTNV-0" />
        <mxCell id="zVLi4YKbOKryRWpVhnH7-0" value="empresa" style="swimlane;fontStyle=0;align=center;verticalAlign=top;childLayout=stackLayout;horizontal=1;startSize=26;horizontalStack=0;resizeParent=1;resizeLast=0;collapsible=1;marginBottom=0;rounded=0;shadow=0;strokeWidth=1;" vertex="1" parent="WIyWlLk6GJQsqaUBKTNV-1">
          <mxGeometry x="-16" y="208" width="160" height="138" as="geometry">
            <mxRectangle x="230" y="140" width="160" height="26" as="alternateBounds" />
          </mxGeometry>
        </mxCell>
        <mxCell id="zVLi4YKbOKryRWpVhnH7-1" value="" style="line;html=1;strokeWidth=1;align=left;verticalAlign=middle;spacingTop=-1;spacingLeft=3;spacingRight=3;rotatable=0;labelPosition=right;points=[];portConstraint=eastwest;" vertex="1" parent="zVLi4YKbOKryRWpVhnH7-0">
          <mxGeometry y="26" width="160" height="104" as="geometry" />
        </mxCell>
        <mxCell id="zVLi4YKbOKryRWpVhnH7-2" value="" style="edgeStyle=orthogonalEdgeStyle;rounded=0;orthogonalLoop=1;jettySize=auto;html=1;" edge="1" parent="WIyWlLk6GJQsqaUBKTNV-1" source="zVLi4YKbOKryRWpVhnH7-3" target="zVLi4YKbOKryRWpVhnH7-8">
          <mxGeometry relative="1" as="geometry" />
        </mxCell>
        <mxCell id="zVLi4YKbOKryRWpVhnH7-3" value="Usuario Administrativo" style="swimlane;fontStyle=0;align=center;verticalAlign=top;childLayout=stackLayout;horizontal=1;startSize=26;horizontalStack=0;resizeParent=1;resizeLast=0;collapsible=1;marginBottom=0;rounded=0;shadow=0;strokeWidth=1;" vertex="1" parent="WIyWlLk6GJQsqaUBKTNV-1">
          <mxGeometry x="-240" y="150" width="160" height="164" as="geometry">
            <mxRectangle x="550" y="140" width="160" height="26" as="alternateBounds" />
          </mxGeometry>
        </mxCell>
        <mxCell id="zVLi4YKbOKryRWpVhnH7-4" value="" style="line;html=1;strokeWidth=1;align=left;verticalAlign=middle;spacingTop=-1;spacingLeft=3;spacingRight=3;rotatable=0;labelPosition=right;points=[];portConstraint=eastwest;" vertex="1" parent="zVLi4YKbOKryRWpVhnH7-3">
          <mxGeometry y="26" width="160" height="8" as="geometry" />
        </mxCell>
        <mxCell id="zVLi4YKbOKryRWpVhnH7-5" value="" style="endArrow=open;shadow=0;strokeWidth=1;rounded=0;endFill=1;edgeStyle=elbowEdgeStyle;elbow=vertical;" edge="1" parent="WIyWlLk6GJQsqaUBKTNV-1" source="zVLi4YKbOKryRWpVhnH7-0" target="zVLi4YKbOKryRWpVhnH7-3">
          <mxGeometry x="0.5" y="41" relative="1" as="geometry">
            <mxPoint x="110" y="300" as="sourcePoint" />
            <mxPoint x="270" y="300" as="targetPoint" />
            <mxPoint x="-40" y="32" as="offset" />
          </mxGeometry>
        </mxCell>
        <mxCell id="zVLi4YKbOKryRWpVhnH7-6" value="" style="edgeStyle=orthogonalEdgeStyle;rounded=0;orthogonalLoop=1;jettySize=auto;html=1;" edge="1" parent="WIyWlLk6GJQsqaUBKTNV-1" source="zVLi4YKbOKryRWpVhnH7-8" target="zVLi4YKbOKryRWpVhnH7-12">
          <mxGeometry relative="1" as="geometry" />
        </mxCell>
        <mxCell id="zVLi4YKbOKryRWpVhnH7-7" value="" style="edgeStyle=orthogonalEdgeStyle;rounded=0;orthogonalLoop=1;jettySize=auto;html=1;shadow=1;entryX=0;entryY=0.5;entryDx=0;entryDy=0;" edge="1" parent="WIyWlLk6GJQsqaUBKTNV-1" source="zVLi4YKbOKryRWpVhnH7-8" target="zVLi4YKbOKryRWpVhnH7-22">
          <mxGeometry relative="1" as="geometry">
            <mxPoint x="-130" y="448" as="targetPoint" />
          </mxGeometry>
        </mxCell>
        <mxCell id="zVLi4YKbOKryRWpVhnH7-8" value="conductor" style="swimlane;fontStyle=0;align=center;verticalAlign=top;childLayout=stackLayout;horizontal=1;startSize=26;horizontalStack=0;resizeParent=1;resizeLast=0;collapsible=1;marginBottom=0;rounded=0;shadow=0;strokeWidth=1;" vertex="1" parent="WIyWlLk6GJQsqaUBKTNV-1">
          <mxGeometry x="-380" y="338" width="160" height="190" as="geometry">
            <mxRectangle x="550" y="140" width="160" height="26" as="alternateBounds" />
          </mxGeometry>
        </mxCell>
        <mxCell id="zVLi4YKbOKryRWpVhnH7-9" value="deuda&#xa;ubicacion" style="text;align=left;verticalAlign=top;spacingLeft=4;spacingRight=4;overflow=hidden;rotatable=0;points=[[0,0.5],[1,0.5]];portConstraint=eastwest;" vertex="1" parent="zVLi4YKbOKryRWpVhnH7-8">
          <mxGeometry y="26" width="160" height="94" as="geometry" />
        </mxCell>
        <mxCell id="zVLi4YKbOKryRWpVhnH7-10" value="" style="line;html=1;strokeWidth=1;align=left;verticalAlign=middle;spacingTop=-1;spacingLeft=3;spacingRight=3;rotatable=0;labelPosition=right;points=[];portConstraint=eastwest;" vertex="1" parent="zVLi4YKbOKryRWpVhnH7-8">
          <mxGeometry y="120" width="160" height="8" as="geometry" />
        </mxCell>
        <mxCell id="zVLi4YKbOKryRWpVhnH7-11" value="" style="edgeStyle=orthogonalEdgeStyle;rounded=0;orthogonalLoop=1;jettySize=auto;html=1;entryX=1;entryY=0.5;entryDx=0;entryDy=0;" edge="1" parent="WIyWlLk6GJQsqaUBKTNV-1" source="zVLi4YKbOKryRWpVhnH7-16" target="zVLi4YKbOKryRWpVhnH7-12">
          <mxGeometry relative="1" as="geometry">
            <mxPoint x="-300" y="618" as="targetPoint" />
          </mxGeometry>
        </mxCell>
        <mxCell id="zVLi4YKbOKryRWpVhnH7-12" value="calificaciÃ³n" style="swimlane;fontStyle=0;align=center;verticalAlign=top;childLayout=stackLayout;horizontal=1;startSize=26;horizontalStack=0;resizeParent=1;resizeLast=0;collapsible=1;marginBottom=0;rounded=0;shadow=0;strokeWidth=1;" vertex="1" parent="WIyWlLk6GJQsqaUBKTNV-1">
          <mxGeometry x="-420" y="578" width="120" height="120" as="geometry">
            <mxRectangle x="550" y="140" width="160" height="26" as="alternateBounds" />
          </mxGeometry>
        </mxCell>
        <mxCell id="zVLi4YKbOKryRWpVhnH7-13" value="" style="line;html=1;strokeWidth=1;align=left;verticalAlign=middle;spacingTop=-1;spacingLeft=3;spacingRight=3;rotatable=0;labelPosition=right;points=[];portConstraint=eastwest;" vertex="1" parent="zVLi4YKbOKryRWpVhnH7-12">
          <mxGeometry y="26" width="120" height="8" as="geometry" />
        </mxCell>
        <mxCell id="zVLi4YKbOKryRWpVhnH7-14" value="" style="edgeStyle=orthogonalEdgeStyle;rounded=0;orthogonalLoop=1;jettySize=auto;html=1;" edge="1" parent="WIyWlLk6GJQsqaUBKTNV-1" source="zVLi4YKbOKryRWpVhnH7-15" target="zVLi4YKbOKryRWpVhnH7-18">
          <mxGeometry relative="1" as="geometry" />
        </mxCell>
        <mxCell id="zVLi4YKbOKryRWpVhnH7-15" value="pasajeros" style="swimlane;fontStyle=0;align=center;verticalAlign=top;childLayout=stackLayout;horizontal=1;startSize=26;horizontalStack=0;resizeParent=1;resizeLast=0;collapsible=1;marginBottom=0;rounded=0;shadow=0;strokeWidth=1;" vertex="1" parent="WIyWlLk6GJQsqaUBKTNV-1">
          <mxGeometry x="-170" y="618" width="120" height="120" as="geometry">
            <mxRectangle x="550" y="140" width="160" height="26" as="alternateBounds" />
          </mxGeometry>
        </mxCell>
        <mxCell id="zVLi4YKbOKryRWpVhnH7-16" value="ubicacion" style="text;align=left;verticalAlign=top;spacingLeft=4;spacingRight=4;overflow=hidden;rotatable=0;points=[[0,0.5],[1,0.5]];portConstraint=eastwest;rounded=0;shadow=0;html=0;" vertex="1" parent="zVLi4YKbOKryRWpVhnH7-15">
          <mxGeometry y="26" width="120" height="64" as="geometry" />
        </mxCell>
        <mxCell id="zVLi4YKbOKryRWpVhnH7-17" value="" style="line;html=1;strokeWidth=1;align=left;verticalAlign=middle;spacingTop=-1;spacingLeft=3;spacingRight=3;rotatable=0;labelPosition=right;points=[];portConstraint=eastwest;" vertex="1" parent="zVLi4YKbOKryRWpVhnH7-15">
          <mxGeometry y="90" width="120" height="8" as="geometry" />
        </mxCell>
        <mxCell id="zVLi4YKbOKryRWpVhnH7-18" value="viajes" style="swimlane;fontStyle=0;align=center;verticalAlign=top;childLayout=stackLayout;horizontal=1;startSize=26;horizontalStack=0;resizeParent=1;resizeLast=0;collapsible=1;marginBottom=0;rounded=0;shadow=0;strokeWidth=1;" vertex="1" parent="WIyWlLk6GJQsqaUBKTNV-1">
          <mxGeometry x="144" y="448" width="126" height="120" as="geometry">
            <mxRectangle x="550" y="140" width="160" height="26" as="alternateBounds" />
          </mxGeometry>
        </mxCell>
        <mxCell id="zVLi4YKbOKryRWpVhnH7-19" value="tarifa&#xa;tiempo&#xa;distancia&#xa;origen y destino&#xa;paradas&#xa;medio de apago" style="text;align=left;verticalAlign=top;spacingLeft=4;spacingRight=4;overflow=hidden;rotatable=0;points=[[0,0.5],[1,0.5]];portConstraint=eastwest;" vertex="1" parent="zVLi4YKbOKryRWpVhnH7-18">
          <mxGeometry y="26" width="126" height="84" as="geometry" />
        </mxCell>
        <mxCell id="zVLi4YKbOKryRWpVhnH7-20" value="" style="line;html=1;strokeWidth=1;align=left;verticalAlign=middle;spacingTop=-1;spacingLeft=3;spacingRight=3;rotatable=0;labelPosition=right;points=[];portConstraint=eastwest;" vertex="1" parent="zVLi4YKbOKryRWpVhnH7-18">
          <mxGeometry y="110" width="126" height="8" as="geometry" />
        </mxCell>
        <mxCell id="zVLi4YKbOKryRWpVhnH7-21" style="edgeStyle=orthogonalEdgeStyle;rounded=0;orthogonalLoop=1;jettySize=auto;html=1;exitX=1;exitY=0.5;exitDx=0;exitDy=0;entryX=-0.004;entryY=0.249;entryDx=0;entryDy=0;entryPerimeter=0;shadow=1;" edge="1" parent="WIyWlLk6GJQsqaUBKTNV-1" source="zVLi4YKbOKryRWpVhnH7-22" target="zVLi4YKbOKryRWpVhnH7-19">
          <mxGeometry relative="1" as="geometry" />
        </mxCell>
        <mxCell id="zVLi4YKbOKryRWpVhnH7-22" value="vehiculo" style="swimlane;fontStyle=0;align=center;verticalAlign=top;childLayout=stackLayout;horizontal=1;startSize=26;horizontalStack=0;resizeParent=1;resizeLast=0;collapsible=1;marginBottom=0;rounded=0;shadow=0;strokeWidth=1;" vertex="1" parent="WIyWlLk6GJQsqaUBKTNV-1">
          <mxGeometry x="-70" y="388" width="90" height="190" as="geometry">
            <mxRectangle x="550" y="140" width="160" height="26" as="alternateBounds" />
          </mxGeometry>
        </mxCell>
        <mxCell id="zVLi4YKbOKryRWpVhnH7-23" value="TipoAuto&#xa;" style="text;align=left;verticalAlign=top;spacingLeft=4;spacingRight=4;overflow=hidden;rotatable=0;points=[[0,0.5],[1,0.5]];portConstraint=eastwest;rounded=0;shadow=0;html=0;" vertex="1" parent="zVLi4YKbOKryRWpVhnH7-22">
          <mxGeometry y="26" width="90" height="26" as="geometry" />
        </mxCell>
        <mxCell id="zVLi4YKbOKryRWpVhnH7-24" value="" style="line;html=1;strokeWidth=1;align=left;verticalAlign=middle;spacingTop=-1;spacingLeft=3;spacingRight=3;rotatable=0;labelPosition=right;points=[];portConstraint=eastwest;" vertex="1" parent="zVLi4YKbOKryRWpVhnH7-22">
          <mxGeometry y="52" width="90" height="8" as="geometry" />
        </mxCell>
        <mxCell id="zVLi4YKbOKryRWpVhnH7-25" value="" style="edgeStyle=orthogonalEdgeStyle;rounded=0;orthogonalLoop=1;jettySize=auto;html=1;shadow=1;entryX=1.031;entryY=0.077;entryDx=0;entryDy=0;entryPerimeter=0;exitX=0;exitY=0.5;exitDx=0;exitDy=0;" edge="1" parent="WIyWlLk6GJQsqaUBKTNV-1" source="zVLi4YKbOKryRWpVhnH7-22">
          <mxGeometry relative="1" as="geometry">
            <mxPoint x="-130" y="528" as="sourcePoint" />
            <mxPoint x="-215.03999999999996" y="444.00199999999995" as="targetPoint" />
          </mxGeometry>
        </mxCell>
        <mxCell id="zVLi4YKbOKryRWpVhnH7-26" value="La calificaciÃ³n&lt;br/&gt;&quot;promedio&quot; de los conductores se calcula sÃ³lo despuÃ©s de tener al menos 25 calificaciones y se calcula teniendo&lt;br/&gt;en cuenta Ãºnicamente los viajes realizados en los Ãºltimos 30 dÃ­as." style="whiteSpace=wrap;html=1;aspect=fixed;fillColor=#fff2cc;strokeColor=#d6b656;" vertex="1" parent="WIyWlLk6GJQsqaUBKTNV-1">
          <mxGeometry x="-560" y="478" width="140" height="140" as="geometry" />
        </mxCell>
        <mxCell id="zVLi4YKbOKryRWpVhnH7-27" value="&#xa;&#xa;Los porcentajes que le corresponden a la empresa y al conductor dependen en parte del tipo de automÃ³vil: para&#xa;categorÃ­a A (los mÃ¡s lujosos) los porcentajes son 25% para la empresa y 75% para el conductor, mientras que para&#xa;las categorÃ­as B y C los porcentajes son 30%/70% y 40%/60% respectivamente&#xa;&#xa;" style="rounded=0;whiteSpace=wrap;html=1;fillColor=#fff2cc;strokeColor=#d6b656;" vertex="1" parent="WIyWlLk6GJQsqaUBKTNV-1">
          <mxGeometry x="290" y="328" width="210" height="180" as="geometry" />
        </mxCell>
        <mxCell id="zVLi4YKbOKryRWpVhnH7-28" value="agregar regla de tarjeta en pago" style="rounded=0;whiteSpace=wrap;html=1;fillColor=#ffe6cc;strokeColor=#d79b00;" vertex="1" parent="WIyWlLk6GJQsqaUBKTNV-1">
          <mxGeometry x="330" y="558" width="120" height="70" as="geometry" />
        </mxCell>
      </root>
    </mxGraphModel>
  </diagram>
</mxfile>
